# xmcd
#
# Track frame offsets:
#	150
#	19910
#	41700
#	63892
#	82415
#	96901
#	122100
#	132450
#	151046
#	164886
#	182851
#	214089
#	237862
#	256956
#	272800
#	296093
#	312590
#
# Disc length: 4416
#
# Revision: 4
# Processed by: cddbd v1.5.1PL0 Copyright (c) Steve Scherf et al.
# Submitted via: CDex 1.50beta8
# Normalized: r3:TDELIM( - )
#
DISCID=08113e11
DTITLE=Various Artist - Blues Way: Riding with The Blues
DYEAR=2001
DGENRE=Blues
TTITLE0=B.B.King and Eric Clapton - Riding with The King
TTITLE1=Kenny wayne Shepherd Band - Shotgun Blues
TTITLE2=Lucky Peterson - Lucky's Blues
TTITLE3=Dr. John - Another Day is Gone
TTITLE4=Bill Wyman`s Rhytm Kings - Green River
TTITLE5=Blues Brothers - Green
TTITLE6=Buddy Guy - First Time I Met The Blues
TTITLE7=Rusty Zinn - Moonlight Blues
TTITLE8=Diana Shuur - You Win
TTITLE9=Chet Atkins and Mark Knopfler - Poor Boy Blues
TTITLE10=Carl Weathersby - Walking The Back Streets and Crying
TTITLE11=Shemekia Copeland - The Other Woman
TTITLE12=Malvin Taylor - If You're Going to The City
TTITLE13=Pretty Things - Judgement Day
TTITLE14=Scott Henderson - Gittar School
TTITLE15=Spencer Davis and Band - On The Green Line
TTITLE16=The Robert Cray Band - Across The Line
EXTD=\n\n YEAR: 2001
EXTT0=
EXTT1=
EXTT2=
EXTT3=
EXTT4=
EXTT5=
EXTT6=
EXTT7=
EXTT8=
EXTT9=
EXTT10=
EXTT11=
EXTT12=
EXTT13=
EXTT14=
EXTT15=
EXTT16=
PLAYORDER=
